<?xml version="1.0" encoding="UTF-8" standalone="no"?>
<svg
   xmlns:dc="http://purl.org/dc/elements/1.1/"
   xmlns:cc="http://creativecommons.org/ns#"
   xmlns:rdf="http://www.w3.org/1999/02/22-rdf-syntax-ns#"
   xmlns:svg="http://www.w3.org/2000/svg"
   xmlns="http://www.w3.org/2000/svg"
   xmlns:sodipodi="http://sodipodi.sourceforge.net/DTD/sodipodi-0.dtd"
   xmlns:inkscape="http://www.inkscape.org/namespaces/inkscape"
   version="1.1"
   id="svg815"
   width="512"
   height="512"
   viewBox="0 0 512 512"
   sodipodi:docname="aroaceagenderflag.svg"
   inkscape:version="1.0.2-2 (e86c870879, 2021-01-15)">
  <metadata
     id="metadata821">
    <rdf:RDF>
      <cc:Work
         rdf:about="">
        <dc:format>image/svg+xml</dc:format>
        <dc:type
           rdf:resource="http://purl.org/dc/dcmitype/StillImage" />
        <dc:title></dc:title>
      </cc:Work>
    </rdf:RDF>
  </metadata>
  <defs
     id="defs819" />
  <sodipodi:namedview
     pagecolor="#151515"
     bordercolor="#666666"
     borderopacity="1"
     objecttolerance="10"
     gridtolerance="10"
     guidetolerance="10"
     inkscape:pageopacity="0"
     inkscape:pageshadow="2"
     inkscape:window-width="1920"
     inkscape:window-height="1017"
     id="namedview817"
     showgrid="false"
     inkscape:zoom="1.578125"
     inkscape:cx="295.62499"
     inkscape:cy="177.05842"
     inkscape:window-x="-8"
     inkscape:window-y="-8"
     inkscape:window-maximized="1"
     inkscape:current-layer="g4636"
     showguides="false"
     inkscape:document-rotation="0"
     inkscape:pagecheckerboard="false" />
  <g
     id="g3285"
     transform="translate(-1.7922523,-7.1690843)">
    <g
       id="g4618"
       inkscape:export-xdpi="600"
       inkscape:export-ydpi="600">
      <g
         id="g4627"
         inkscape:export-xdpi="600"
         inkscape:export-ydpi="600">
        <g
           id="g4646"
           inkscape:export-xdpi="600"
           inkscape:export-ydpi="600">
          <g
             id="g4636"
             inkscape:export-xdpi="600"
             inkscape:export-ydpi="600">
            <path
               inkscape:connector-curvature="0"
               id="path1428"
               d="M 48.484848,75.463018 C 48.370408,75.158867 47.64327,65.093049 47.44985,53.861162 l -0.35167,-20.42161 c 126.99949,41.42786 285.31344,-55.064317 447.33021,-4.825764 V 49.573784 70.53378 C 331.79702,16.708348 206.08771,119.08498 48.484848,75.463018 Z"
               style="fill:#e28d00;fill-opacity:1;stroke:none;stroke-width:0.234434;stroke-miterlimit:4;stroke-dasharray:none;stroke-dashoffset:0;stroke-opacity:1"
               sodipodi:nodetypes="csccccc" />
            <path
               inkscape:connector-curvature="0"
               id="path1428-7"
               d="m 48.484846,117.38301 c -0.11444,-0.30415 -1.606491,-10.38285 -1.034998,-21.60186 l 1.035,-20.318132 C 192.51091,116.44281 335.54809,16.710686 494.42839,70.53378 v 20.96 20.95999 C 331.79702,58.62834 206.08771,161.00498 48.484846,117.38301 Z"
               style="fill:#eccd00;fill-opacity:1;stroke:none;stroke-width:0.234434;stroke-miterlimit:4;stroke-dasharray:none;stroke-dashoffset:0;stroke-opacity:1"
               sodipodi:nodetypes="csccccc" />
            <path
               inkscape:connector-curvature="0"
               id="path1428-77"
               d="m 48.484848,159.303 c -0.11444,-0.30415 -1.606488,-10.38285 -1.034998,-21.60185 l 1.034996,-20.31814 c 159.708434,42.324 286.615184,-60.096534 445.943544,-4.92924 v 20.96 20.95999 C 331.79702,100.54833 206.08771,202.92497 48.484848,159.303 Z"
               style="fill:#ffffff;fill-opacity:1;stroke:none;stroke-width:0.234434;stroke-miterlimit:4;stroke-dasharray:none;stroke-dashoffset:0;stroke-opacity:1"
               sodipodi:nodetypes="csccccc" />
            <path
               inkscape:connector-curvature="0"
               id="path1428-79"
               d="m 48.484848,201.22299 c -0.11444,-0.30415 -1.606489,-10.38285 -1.034998,-21.60185 L 48.484848,159.303 C 201.0242,199.83472 340.47684,98.912147 494.42839,154.37376 v 20.96 20.95999 C 331.79702,142.46832 206.08771,244.84496 48.484848,201.22299 Z"
               style="fill:#b5f682;fill-opacity:1;stroke:none;stroke-width:0.234434;stroke-miterlimit:4;stroke-dasharray:none;stroke-dashoffset:0;stroke-opacity:1"
               sodipodi:nodetypes="csccccc" />
            <path
               inkscape:connector-curvature="0"
               id="path1428-9"
               d="m 48.484852,243.14298 c -0.11444,-0.30415 -1.606487,-10.38285 -1.034998,-21.60185 l 1.034994,-20.31814 C 186.23795,240.41051 341.37297,140.23032 494.42839,196.29375 v 20.96 20.95999 C 331.79702,184.38831 206.08771,286.76495 48.484852,243.14298 Z"
               style="fill:#ffffff;fill-opacity:1;stroke:none;stroke-width:0.234434;stroke-miterlimit:4;stroke-dasharray:none;stroke-dashoffset:0;stroke-opacity:1"
               sodipodi:nodetypes="csccccc" />
            <path
               inkscape:connector-curvature="0"
               id="path1428-5"
               d="m 49.87152,285.16644 c -0.11444,-0.30415 -0.84158,-10.36997 -1.034998,-21.60185 l -0.35167,-20.42161 c 132.824368,38.73945 286.166968,-58.30426 445.943398,-4.92924 -0.0336,16.42856 0.17069,25.0095 0,42.02347 -162.63137,-53.82544 -286.95387,48.5512 -444.55673,4.92923 z"
               style="fill:#62afdd;fill-opacity:1;stroke:none;stroke-width:0.234434;stroke-miterlimit:4;stroke-dasharray:none;stroke-dashoffset:0;stroke-opacity:1"
               sodipodi:nodetypes="cscccc" />
            <path
               inkscape:connector-curvature="0"
               id="path1428-79-2"
               d="m 49.871515,327.08644 c -0.11444,-0.30415 -0.841578,-10.36997 -1.034998,-21.60185 l -0.35167,-20.42161 c 156.123893,39.63558 291.991853,-57.75273 445.943403,-4.82577 -0.11468,14.74221 0,27.91954 0,41.91999 -162.63137,-53.82543 -286.95387,48.55121 -444.556735,4.92924 z"
               style="fill:#203756;fill-opacity:1;stroke:none;stroke-width:0.234434;stroke-miterlimit:4;stroke-dasharray:none;stroke-dashoffset:0;stroke-opacity:1"
               sodipodi:nodetypes="cscccc" />
          </g>
        </g>
      </g>
    </g>
    <g
       id="g938">
      <path
         sodipodi:nodetypes="ccsscccsscccc"
         inkscape:connector-curvature="0"
         id="path1438"
         d="m 34.890823,262.15494 0.25015,-233.029707 -1.45464,-3.168317 c -0.80005,-1.742574 -2.3257,-4.256523 -3.39034,-5.586553 -1.06464,-1.33003 -1.522603,-2.217624 -1.283413,-2.45591 0.23918,-0.238287 2.260293,-0.81767 4.757083,-0.804039 13.666861,0.03304 14.964119,13.673492 15.30554,25.090036 0.376932,17.539246 0.359502,53.053226 0.52278,127.59805 0.166414,75.97624 0.14593,180.26931 -0.0455,231.76238 l -0.34808,93.62376 h -7.28185 -7.28186 z"
         style="fill:#6e8189;fill-opacity:1;stroke:none;stroke-width:0.263444;stroke-miterlimit:4;stroke-dasharray:none;stroke-dashoffset:0;stroke-opacity:1" />
      <path
         sodipodi:nodetypes="scccsscccs"
         inkscape:connector-curvature="0"
         id="path1440"
         d="M 20.82257,264.16996 C 21.041569,94.708847 21.011347,47.485023 22.025124,32.573454 c 0.136847,-6.462485 2.763465,-10.72507 6.987456,-14.659001 5.885521,6.402037 6.566345,6.192377 6.789098,13.702561 0.768888,13.532123 0.05572,49.641101 0.05552,154.967826 -1.63e-4,86.53956 -0.18986,191.38118 -0.42156,232.98141 L 35.01437,495.203 H 27.76919 20.524 Z"
         style="fill:#99a8ae;fill-opacity:1;stroke:none;stroke-width:0.26357;stroke-miterlimit:4;stroke-dasharray:none;stroke-dashoffset:0;stroke-opacity:1" />
    </g>
  </g>
</svg>
