<?xml version="1.0" encoding="UTF-8" standalone="no"?>
<!-- Generator: Adobe Illustrator 21.0.0, SVG Export Plug-In . SVG Version: 6.00 Build 0)  -->

<svg
   version="1.1"
   id="Layer_1"
   x="0px"
   y="0px"
   width="64px"
   height="64px"
   viewBox="0 0 64 64"
   style="enable-background:new 0 0 64 64;"
   xml:space="preserve"
   sodipodi:docname="hypersensual-flag.svg"
   inkscape:version="1.2.2 (b0a8486541, 2022-12-01)"
   inkscape:export-filename="../png/asensual-flag.png"
   inkscape:export-xdpi="4438.5"
   inkscape:export-ydpi="4438.5"
   xmlns:inkscape="http://www.inkscape.org/namespaces/inkscape"
   xmlns:sodipodi="http://sodipodi.sourceforge.net/DTD/sodipodi-0.dtd"
   xmlns="http://www.w3.org/2000/svg"
   xmlns:svg="http://www.w3.org/2000/svg"><defs
   id="defs19" /><sodipodi:namedview
   id="namedview17"
   pagecolor="#ffffff"
   bordercolor="#000000"
   borderopacity="0.25"
   inkscape:showpageshadow="2"
   inkscape:pageopacity="0.0"
   inkscape:pagecheckerboard="0"
   inkscape:deskcolor="#d1d1d1"
   showgrid="false"
   inkscape:zoom="16"
   inkscape:cx="34.1875"
   inkscape:cy="36"
   inkscape:window-width="2560"
   inkscape:window-height="1404"
   inkscape:window-x="0"
   inkscape:window-y="0"
   inkscape:window-maximized="1"
   inkscape:current-layer="Layer_1" />
<style
   type="text/css"
   id="style2">
	.st0{fill:#A3A3A3;}
	.st1{fill:#FFFFFF;}
	.st2{fill:#800080;}
	.st3{fill:#99A8AE;}
	.st4{fill:#6E8189;}
</style>
<rect
   style="fill:#9777ff;fill-opacity:1;stroke-width:0.958444"
   id="rect4144-1"
   width="14.166054"
   height="25.25"
   x="47.865196"
   y="8.78125" /><rect
   style="fill:#c17bff;fill-opacity:1;stroke-width:0.958444"
   id="rect4144-1-2"
   width="14.166054"
   height="25.25"
   x="33.757751"
   y="7.4570007" /><rect
   style="fill:#f9abff;fill-opacity:1;stroke-width:0.958444"
   id="rect4144-1-7"
   width="14.166054"
   height="25.25"
   x="19.698643"
   y="9.0964365" /><rect
   style="fill:#ffc8f4;fill-opacity:1;stroke-width:0.958444"
   id="rect4144-1-0"
   width="14.166054"
   height="25.25"
   x="5.7294731"
   y="9.8125" /><path
   d="M4,4.25c0,4.13,0,6.96,0,11.09c19.33,7.81,38.67-7.81,58,0c0-6.8,0-4.28,0-11.09C42.67-3.55,23.33,12.06,4,4.25z"
   id="path4" />


<path
   class="st2"
   d="M4,30.87c0,3.17,0,5.8,0,8.87c19.33,7.81,38.67-7.81,58,0c0-8.6,0-0.66,0-8.87C42.67,23.06,23.33,38.68,4,30.87  z"
   id="path10"
   style="fill:#000000;fill-opacity:1" />
<path
   class="st3"
   d="M2,4.12V62l4,0V4.12C6,1.29,2,1.29,2,4.12z"
   id="path12" />
<path
   class="st4"
   d="M2.99,2.27c0.57,0.32,1,0.91,1,1.82L4,61.97l2,0V4.09C6,2.18,4.18,1.6,2.99,2.27z"
   id="path14" />
</svg>
