<?xml version="1.0" encoding="UTF-8" standalone="no"?>
<svg
   xmlns:dc="http://purl.org/dc/elements/1.1/"
   xmlns:cc="http://creativecommons.org/ns#"
   xmlns:rdf="http://www.w3.org/1999/02/22-rdf-syntax-ns#"
   xmlns:svg="http://www.w3.org/2000/svg"
   xmlns="http://www.w3.org/2000/svg"
   xmlns:sodipodi="http://sodipodi.sourceforge.net/DTD/sodipodi-0.dtd"
   xmlns:inkscape="http://www.inkscape.org/namespaces/inkscape"
   version="1.1"
   id="svg815"
   width="512"
   height="512"
   viewBox="0 0 512 512"
   sodipodi:docname="orientedaroaceflag.svg"
   inkscape:version="1.0.2-2 (e86c870879, 2021-01-15)"
   inkscape:export-xdpi="600"
   inkscape:export-ydpi="600">
  <metadata
     id="metadata821">
    <rdf:RDF>
      <cc:Work
         rdf:about="">
        <dc:format>image/svg+xml</dc:format>
        <dc:type
           rdf:resource="http://purl.org/dc/dcmitype/StillImage" />
        <dc:title></dc:title>
      </cc:Work>
    </rdf:RDF>
  </metadata>
  <defs
     id="defs819" />
  <sodipodi:namedview
     pagecolor="#ffffff"
     bordercolor="#666666"
     borderopacity="1"
     objecttolerance="10"
     gridtolerance="10"
     guidetolerance="10"
     inkscape:pageopacity="0"
     inkscape:pageshadow="2"
     inkscape:window-width="1920"
     inkscape:window-height="1017"
     id="namedview817"
     showgrid="false"
     inkscape:zoom="0.73046875"
     inkscape:cx="154.35457"
     inkscape:cy="290.02867"
     inkscape:window-x="-8"
     inkscape:window-y="-8"
     inkscape:window-maximized="1"
     inkscape:current-layer="g866"
     showguides="false"
     inkscape:pagecheckerboard="true"
     inkscape:document-rotation="0" />
  <g
     id="g3381">
    <g
       id="g1430"
       transform="translate(-1616.6281,-543.05801)">
      <g
         id="g3389"
         inkscape:export-xdpi="600"
         inkscape:export-ydpi="600">
        <g
           id="g3401"
           inkscape:export-xdpi="600"
           inkscape:export-ydpi="600">
          <g
             id="g866"
             inkscape:export-xdpi="600"
             inkscape:export-ydpi="600">
            <g
               id="g875"
               inkscape:export-xdpi="600"
               inkscape:export-ydpi="600">
              <path
                 sodipodi:nodetypes="ccsscccsscccc"
                 inkscape:connector-curvature="0"
                 id="path1438"
                 d="m 1646.9304,807.10544 0.2502,-233.02971 -1.4547,-3.16832 c -0.8,-1.74257 -2.3257,-4.25652 -3.3903,-5.58655 -1.0646,-1.33003 -1.5226,-2.21763 -1.2834,-2.45591 0.2392,-0.23829 2.2603,-0.81767 4.7571,-0.80404 13.6668,0.033 14.9641,13.67349 15.3055,25.09004 0.3769,17.53924 0.3595,53.05322 0.5228,127.59805 0.1664,75.97624 0.1459,180.26931 -0.045,231.76238 l -0.3481,93.62372 h -7.2818 -7.2819 z"
                 style="opacity:1;fill:#6e8189;fill-opacity:1;stroke:none;stroke-width:0.263444;stroke-miterlimit:4;stroke-dasharray:none;stroke-dashoffset:0;stroke-opacity:1" />
              <path
                 inkscape:connector-curvature="0"
                 id="path1428"
                 d="m 1717.5181,671.36395 c -1.5602,-0.3488 -5.8922,-0.88946 -9.6267,-1.20145 -3.7345,-0.31197 -6.9425,-0.86791 -7.129,-1.2354 -0.1864,-0.36748 -1.2698,-0.66816 -2.4076,-0.66816 -2.4057,0 -13.6068,-2.82363 -23.8852,-6.02109 -3.9001,-1.21329 -12.9248,-7.57291 -13.1482,-8.48665 -0.1358,-21.60729 -0.2375,-37.88074 -0.5013,-61.44596 l 7.7313,3.34151 c 12.8742,5.56428 25.5746,8.55722 45.4996,10.72218 17.4911,1.90051 55.7021,0.93361 70.6022,-1.78655 2.4269,-0.44306 5.5473,-0.98545 6.9341,-1.2053 14.8848,-2.35967 27.3549,-4.65173 30.8885,-5.67741 1.3868,-0.40254 3.6562,-0.91299 5.043,-1.13432 43.8666,-10.41295 83.4555,-22.82295 123.869,-28.79267 49.8433,-4.72819 109.5187,-4.99174 154.4423,17.14641 v 32.08066 32.08066 l -3.6247,-2.21976 c -13.143,-8.0488 -34.6069,-14.61958 -59.7309,-18.28553 -11.7652,-1.71673 -55.9516,-1.98041 -69.6539,-0.41566 -35.2226,4.02224 -59.6687,9.22031 -103.697,22.04941 -30.5226,8.89381 -56.2874,14.89839 -77.4585,18.05197 -17.985,2.679 -25.2796,3.20939 -47.6713,3.46619 -13.0015,0.14912 -24.9155,-0.0143 -26.4757,-0.36308 z"
                 style="opacity:1;fill:#151638;fill-opacity:1;stroke:none;stroke-width:0.28928;stroke-miterlimit:4;stroke-dasharray:none;stroke-dashoffset:0;stroke-opacity:1"
                 sodipodi:nodetypes="sssssccssscscccccsssssss" />
              <path
                 inkscape:connector-curvature="0"
                 id="path1430"
                 d="m 2012.2649,748.17943 c -23.0024,-0.16388 -52.9361,2.04923 -71.2573,5.55077 -2.083,0.39812 -5.6328,1.02832 -7.8894,1.39965 -2.2566,0.37131 -4.9548,0.85627 -5.9963,1.07799 -1.0415,0.22171 -3.3149,0.66745 -5.0508,0.98889 -1.7358,0.32144 -3.5825,0.77151 -4.1033,0.99973 -0.5207,0.22822 -2.6505,0.71601 -4.7335,1.08451 -4.9877,0.88235 -10.2035,2.01754 -12.9402,2.81669 -1.215,0.35482 -4.6232,1.16488 -7.5742,1.79954 -2.9509,0.63468 -6.2175,1.42529 -7.259,1.75826 -1.0415,0.33296 -3.1714,0.81605 -4.7337,1.07364 -1.5622,0.25759 -3.8356,0.75021 -5.0507,1.09538 -3.4891,0.99114 -21.0336,5.34217 -29.3512,7.27859 -18.7743,4.37084 -47.1846,9.41847 -62.1754,11.0472 -2.9509,0.32061 -8.4889,0.95828 -12.3078,1.41702 -4.0147,0.48233 -16.6618,0.84094 -29.9835,0.84762 -19.9375,0.01 -24.5698,-0.19808 -34.402,-1.54309 -15.1032,-2.06601 -32.4451,-6.11025 -39.1356,-9.12594 -0.6943,-0.31296 -2.6118,-1.0559 -4.2608,-1.65175 l -2.9982,-1.08451 v 33.64801 33.64801 l 5.5235,1.88648 c 14.2867,4.88436 31.6718,8.11232 53.1809,9.8736 8.0159,0.65638 51.9283,-0.24164 61.8582,-1.2649 22.7163,-2.34089 46.7267,-6.16464 67.2261,-10.70817 4.5132,-1.00031 9.058,-1.97052 10.0995,-2.15598 1.0415,-0.18544 11.1244,-2.71676 22.4074,-5.62466 73.016,-18.87125 156.6372,-39.4819 221.0856,-0.57594 l 3.6285,1.64089 v -32.97862 -32.97862 l -2.9981,-1.82128 c -15.8598,-9.63362 -44.2049,-16.66818 -76.2186,-18.91261 -4.3424,-0.30443 -9.2818,-0.46858 -14.5901,-0.5064 z"
                 style="opacity:1;fill:#35aea0;fill-opacity:1;stroke:none;stroke-width:0.277364;stroke-miterlimit:4;stroke-dasharray:none;stroke-dashoffset:0;stroke-opacity:1"
                 sodipodi:nodetypes="sssssssssssssscscscccccssssccccccss" />
              <path
                 inkscape:connector-curvature="0"
                 id="path1432"
                 d="m 1715.304,732.16289 c -19.5518,-2.01246 -38.8198,-6.99172 -49.8498,-12.88232 l -4.3921,-2.34555 c 0.5698,-21.24348 0.099,-43.77048 0.5016,-63.66783 61.9803,25.23453 140.1686,12.97977 190.2911,0.1735 4.1627,-1.08685 9.5554,-2.46982 11.9836,-3.07329 2.4283,-0.60346 5.5503,-1.38973 6.938,-1.74726 1.3876,-0.35753 4.3677,-1.05812 6.6225,-1.55687 2.2548,-0.49874 4.5254,-1.10116 5.0458,-1.33874 0.5203,-0.23756 2.7909,-0.85055 5.0457,-1.36218 2.2548,-0.51164 6.3703,-1.49243 9.1455,-2.17955 17.6154,-4.36153 20.1243,-4.96121 25.2287,-6.03013 2.7751,-0.58116 6.6068,-1.38888 8.5148,-1.79495 32.63,-6.94478 58.5116,-9.6207 85.147,-8.80342 19.3283,0.59307 37.6988,3.06405 50.7729,6.82935 2.4283,0.69934 5.4085,1.55605 6.6226,1.90379 4.8363,1.38517 7.9442,2.40293 9.1454,2.99485 0.6939,0.34185 2.8226,1.17935 4.7305,1.8611 4.5527,1.62682 11.4769,4.68605 15.6103,6.89691 l 3.3112,1.77115 c -0.1437,20.39126 0.1125,40.7788 0.3528,61.16786 -77.3152,-25.85379 -161.9465,-18.69434 -234.9804,1.73362 -40.0658,11.54511 -67.331,17.29895 -98.3923,20.76394 -9.6377,1.07512 -49.0401,1.54623 -57.3954,0.68621 z"
                 style="opacity:1;fill:#80a1b6;fill-opacity:1;stroke:none;stroke-width:0.286574;stroke-miterlimit:4;stroke-dasharray:none;stroke-dashoffset:0;stroke-opacity:1"
                 sodipodi:nodetypes="sccccssssssscsssssscccsss" />
              <path
                 inkscape:connector-curvature="0"
                 id="path1436"
                 d="m 1716.925,791.22094 c -12.7375,-1.18299 -26.0051,-3.73365 -39.1355,-7.52371 -9.9531,-2.87291 -9.8306,-2.82941 -14.3603,-5.09824 l -2.3671,-1.1856 v -30.42365 -30.42367 l 1.4203,0.38942 c 0.7811,0.21417 5.3867,1.74464 10.2345,3.40104 15.25,5.21053 29.8023,8.07756 48.9423,9.6423 10.9511,0.89528 42.2146,0.42402 50.1819,-0.75644 2.7774,-0.41149 8.1744,-1.14412 11.9931,-1.62805 17.9857,-2.27917 31.2961,-4.67086 50.4976,-9.07368 2.7774,-0.63684 7.0382,-1.60813 9.4684,-2.15842 4.9729,-1.12609 13.0924,-3.05674 17.3584,-4.12756 1.5623,-0.39212 4.6869,-1.12741 6.9435,-1.63393 2.2566,-0.50652 4.5288,-1.12179 5.0497,-1.36726 0.5209,-0.24546 2.3671,-0.65634 4.1028,-0.91305 1.736,-0.25671 4.0084,-0.75445 5.0499,-1.10608 1.0416,-0.35163 4.3081,-1.1775 7.2591,-1.83526 2.9509,-0.65774 6.3595,-1.49678 7.5746,-1.86452 1.215,-0.36774 3.7715,-1.01515 5.681,-1.43869 1.9093,-0.42354 5.744,-1.2732 8.5214,-1.88815 2.7774,-0.61492 6.328,-1.41272 7.8902,-1.77289 63.8933,-11.55302 135.301,-15.34624 186.841,10.54427 v 30.55139 c 0,16.80325 0.015,29.88921 -0.1547,29.88921 -35.6682,-16.27334 -79.4,-21.50575 -112.3372,-19.93874 -35.637,1.98504 -69.7108,7.73822 -109.6973,18.52179 -20.5878,5.55211 -28.3687,7.51173 -37.1453,9.35506 -1.8562,0.38986 -3.9028,0.90281 -4.5482,1.13989 -1.6884,0.62043 -4.8807,1.30926 -23.6378,5.10064 -3.1245,0.63157 -7.2432,1.43981 -9.1526,1.7961 -3.0922,0.577 -5.305,0.96198 -14.8337,2.58064 -5.2459,0.89117 -19.8527,2.64992 -27.1424,3.26816 -8.8893,0.7539 -42.2981,0.73898 -50.4976,-0.0226 z"
                 style="opacity:1;fill:#ffffff;fill-opacity:1;stroke:none;stroke-width:0.282364;stroke-miterlimit:4;stroke-dasharray:none;stroke-dashoffset:0;stroke-opacity:1"
                 sodipodi:nodetypes="csscccscsscsssssscssssccsccsscsssscc" />
              <path
                 sodipodi:nodetypes="scccsscccs"
                 inkscape:connector-curvature="0"
                 id="path1440"
                 d="m 1632.8622,809.12046 c 0.219,-169.46112 0.1888,-216.68494 1.2025,-231.59651 0.1369,-6.46249 2.7635,-10.72507 6.9875,-14.659 5.8855,6.40204 6.5663,6.19238 6.7891,13.70256 0.7689,13.53212 0.056,49.6411 0.055,154.96783 -2e-4,86.53956 -0.1899,191.38118 -0.4216,232.98141 l -0.4212,75.63675 h -7.2452 -7.2452 z"
                 style="opacity:1;fill:#99a8ae;fill-opacity:1;stroke:none;stroke-width:0.26357;stroke-miterlimit:4;stroke-dasharray:none;stroke-dashoffset:0;stroke-opacity:1" />
            </g>
          </g>
        </g>
      </g>
    </g>
  </g>
</svg>
