<?xml version="1.0" encoding="UTF-8" standalone="no"?>
<svg
   xmlns:dc="http://purl.org/dc/elements/1.1/"
   xmlns:cc="http://creativecommons.org/ns#"
   xmlns:rdf="http://www.w3.org/1999/02/22-rdf-syntax-ns#"
   xmlns:svg="http://www.w3.org/2000/svg"
   xmlns="http://www.w3.org/2000/svg"
   xmlns:sodipodi="http://sodipodi.sourceforge.net/DTD/sodipodi-0.dtd"
   xmlns:inkscape="http://www.inkscape.org/namespaces/inkscape"
   version="1.1"
   id="Layer_1"
   x="0px"
   y="0px"
   width="64px"
   height="64px"
   viewBox="0 0 64 64"
   style="enable-background:new 0 0 64 64;"
   xml:space="preserve"
   sodipodi:docname="progresspride-flag_inter.svg"
   inkscape:version="1.0.2-2 (e86c870879, 2021-01-15)"
   inkscape:export-filename="C:\Users\leahermann\Documents\aspec\aspec_german\emojis\pride-emoji-flags\svg\progresspride-flag.png"
   inkscape:export-xdpi="600"
   inkscape:export-ydpi="600"><metadata
   id="metadata21"><rdf:RDF><cc:Work
       rdf:about=""><dc:format>image/svg+xml</dc:format><dc:type
         rdf:resource="http://purl.org/dc/dcmitype/StillImage" /><dc:title /></cc:Work></rdf:RDF></metadata><defs
   id="defs19" /><sodipodi:namedview
   pagecolor="#ffffff"
   bordercolor="#666666"
   borderopacity="1"
   objecttolerance="10"
   gridtolerance="10"
   guidetolerance="10"
   inkscape:pageopacity="0"
   inkscape:pageshadow="2"
   inkscape:window-width="1920"
   inkscape:window-height="1017"
   id="namedview17"
   showgrid="false"
   inkscape:zoom="5.2149125"
   inkscape:cx="54.459621"
   inkscape:cy="24.790594"
   inkscape:window-x="-8"
   inkscape:window-y="-8"
   inkscape:window-maximized="1"
   inkscape:current-layer="layer4"
   inkscape:document-rotation="0"
   inkscape:snap-global="true" />
<style
   type="text/css"
   id="style2">
	.st0{fill:#D2D2D2;}
	.st1{fill:#6E0070;}
	.st2{fill:#FFFFFF;}
	.st3{fill:#99A8AE;}
	.st4{fill:#6E8189;}
</style>






<g
   inkscape:groupmode="layer"
   id="layer1"
   inkscape:label="Layer 1" /><g
   inkscape:groupmode="layer"
   id="layer2"
   inkscape:label="Layer 2"
   style="display:inline" /><g
   inkscape:groupmode="layer"
   id="layer3"
   inkscape:label="Layer 3"
   style="display:inline" /><g
   inkscape:groupmode="layer"
   id="layer4"
   inkscape:label="Layer 4"><g
     id="g919"
     transform="translate(0,-0.38351554)"><g
       id="g931" /><g
       id="g1000"
       inkscape:export-xdpi="600"
       inkscape:export-ydpi="600" /></g><g
     id="g937"
     inkscape:export-filename="C:\Users\leahermann\Documents\aspec\aspec_german\emojis\pride-emoji-flags\progressprideflag_inter.png"
     inkscape:export-xdpi="600"
     inkscape:export-ydpi="600"><path
       class="st1"
       d="m 5,5.27 c 22.19,10.97 45.08,0.85 58,13.77 v 5.92 c -19.33,-7.81 -38.67,7.81 -58,0"
       id="path6"
       style="enable-background:new 0 0 64 64"
       transform="translate(0,-0.38351554)" /><path
       class="st3"
       d="M 3,4.12 V 62 H 7 V 4.12 C 7,1.3 3,1.29 3,4.12 Z"
       id="path12"
       style="enable-background:new 0 0 64 64"
       transform="translate(0,-0.38351554)" /><path
       class="st4"
       d="M 4,2.27 C 4.57,2.59 5,3.18 5,4.09 V 61.97 H 7 V 4.09 C 7,2.18 5.18,1.6 4,2.27 Z"
       id="path14"
       style="enable-background:new 0 0 64 64"
       transform="translate(0,-0.38351554)" /><path
       id="path835"
       d="m 63,10.25 c -19.33,-8.23 -38.67,8.23 -57.9999999,0 0,-1.9599999 0,-4.9 0,-6.8499999 C 24.33,11.63 43.67,-4.8300001 63,3.4000001 63,5.35 63,8.2900001 63,10.25 Z"
       class="st0"
       inkscape:connector-curvature="0"
       style="enable-background:new 0 0 64 64;fill:#e81c27;stroke-width:0.999998"
       transform="translate(0,-0.38351554)" /><path
       id="path837"
       d="m 63,17.050914 c -19.33,-8.4000373 -38.67,8.400038 -58,0 0,-2.000495 0,-5.001237 0,-6.991526 19.33,8.400038 38.67,-8.4000373 58,0 0,2.000495 0,5.001238 0,6.991526 z"
       class="st1"
       inkscape:connector-curvature="0"
       style="enable-background:new 0 0 64 64;fill:#ea8800;stroke-width:1.01028"
       transform="translate(0,-0.38351554)" /><path
       id="path839"
       d="m 63,22.98 c -19.33,-8.23 -38.67,8.23 -58,0 0,-1.96 0,-4.9 0,-6.85 19.33,8.23 38.67,-8.23 58,0 0,1.95 0,4.89 0,6.85 z"
       class="st2"
       inkscape:connector-curvature="0"
       style="enable-background:new 0 0 64 64;fill:#ffe12c"
       transform="translate(0,-0.38351554)" /><path
       id="path841"
       d="m 63,28.85 c -19.33,-8.23 -38.67,8.23 -58,0 0,-1.96 0,-4.9 0,-6.85 19.33,8.23 38.67,-8.23 58,0 0,1.96 0,4.9 0,6.85 z"
       class="st3"
       inkscape:connector-curvature="0"
       style="enable-background:new 0 0 64 64;fill:#2eb219;fill-opacity:1"
       transform="translate(0,-0.38351554)" /><path
       id="path843"
       d="m 63,34.73 c -19.33,-8.23 -38.67,8.23 -58,0 0,-1.96 0,-4.9 0,-6.85 19.33,8.23 38.67,-8.23 58,0 0,1.95 0,4.89 0,6.85 z"
       class="st4"
       inkscape:connector-curvature="0"
       style="enable-background:new 0 0 64 64;fill:#005bae;fill-opacity:1"
       transform="translate(0,-0.38351554)" /><path
       id="path845"
       d="m 63,40.577862 c -19.33,-8.341331 -38.67,8.34133 -57.9999996,0 0,-1.986514 0,-3.973028 0,-5.959542 C 24.33,42.959651 43.67,26.276989 63,34.61832 c 0,1.986514 0,3.973028 0,5.959542 z"
       class="st5"
       inkscape:connector-curvature="0"
       style="enable-background:new 0 0 64 64;fill:#7d0c7a;stroke-width:1.00674"
       transform="translate(0,-0.38351554)" /><path
       id="path847"
       d="M 3,4.12 V 62 H 7 V 4.12 C 7,1.29 3,1.29 3,4.12 Z"
       class="st6"
       inkscape:connector-curvature="0"
       style="enable-background:new 0 0 64 64;fill:#99a8ae"
       transform="translate(0,-0.38351554)" /><path
       id="path849"
       d="m 3.99,2.27 c 0.57,0.32 1,0.91 1,1.82 L 5,61.97 H 7 V 4.09 C 7,2.18 5.18,1.6 3.99,2.27 Z"
       class="st7"
       inkscape:connector-curvature="0"
       style="enable-background:new 0 0 64 64;fill:#6e8189"
       transform="translate(0,-0.38351554)" /><path
       id="path847-1"
       d="M 3,4.12 V 62 H 7 V 4.12 C 7,1.2900001 3,1.2900001 3,4.12 Z"
       class="st6"
       inkscape:connector-curvature="0"
       style="enable-background:new 0 0 64 64;display:inline;fill:#99a8ae"
       transform="translate(0,-0.38351554)" /><path
       id="path849-2"
       d="m 3.99,2.2700001 c 0.57,0.32 1,0.91 1,1.8199999 L 5,61.97 H 7 V 4.09 C 7,2.1800001 5.18,1.6000001 3.99,2.2700001 Z"
       class="st7"
       inkscape:connector-curvature="0"
       style="enable-background:new 0 0 64 64;display:inline;fill:#6e8189"
       transform="translate(0,-0.38351554)" /><path
       d="M 6.8644068,4.1664407 C 14.654645,12.133279 22.439859,18.268034 33.349492,22.215254 28.028501,30.634849 15.659905,39.53771 7.0239697,41.379438 7.0239697,41.379438 5,27.1 5,22.61 5,12.07 6.8644068,4.1664407 6.8644068,4.1664407 Z"
       id="path10"
       sodipodi:nodetypes="cccsc"
       style="enable-background:new 0 0 64 64"
       transform="translate(0,-0.38351554)" /><path
       id="path10-7"
       style="enable-background:new 0 0 64 64;display:inline;fill:#603814;fill-opacity:1;stroke-width:0.935364"
       d="M 7.0702483,7.5832269 7.0223088,39.6369 C 15.144503,36.151604 23.14165,31.809634 29.633497,23.060101 21.785255,20.612836 13.453031,14.02103 7.0702483,7.5832269 Z"
       sodipodi:nodetypes="cccc"
       transform="translate(0,-0.38351554)" /><path
       id="path10-5"
       style="enable-background:new 0 0 64 64;display:inline;fill:#74d7ec;fill-opacity:1;stroke-width:0.921482"
       d="M 6.9284189,9.7409374 V 37.678438 C 15.934836,33.85336 20.922187,29.598552 26.02453,23.890501 15.392945,19.07179 13.605892,16.631851 6.9284189,9.7409374 Z"
       sodipodi:nodetypes="cccc"
       transform="translate(0,-0.38351554)" /><path
       id="path10-3"
       style="enable-background:new 0 0 64 64;display:inline;fill:#ffafc8;fill-opacity:1;stroke-width:0.875081"
       d="M 6.9179831,12.281954 V 35.996797 C 14.765338,31.9068 17.944544,29.751487 22.977924,24.533693 14.872538,19.696074 12.828392,18.313032 6.9179831,12.281954 Z"
       sodipodi:nodetypes="cccc"
       transform="translate(0,-0.38351554)" /><path
       id="path10-56"
       style="enable-background:new 0 0 64 64;display:inline;fill:#ffffff;fill-opacity:1;stroke-width:0.839982"
       d="M 6.9804117,15.173653 V 33.328828 C 12.046401,31.33799 16.440232,29.227766 19.993609,24.97936 15.815064,22.609726 13.713622,20.93854 6.9804117,15.173653 Z"
       sodipodi:nodetypes="cccc"
       transform="translate(0,-0.38351554)" /><path
       id="path849-2-7"
       d="m 4,2.27 c 0.57,0.32 1,0.91 1,1.82 l 0.01,57.879999 h 2 V 4.09 C 7.01,2.18 5.19,1.6 4,2.27 Z"
       class="st7"
       inkscape:connector-curvature="0"
       style="enable-background:new 0 0 64 64;display:inline;fill:#6e8189"
       transform="translate(0,-0.38351554)" /><path
       id="path847-0"
       d="M 3,4.12 V 62 H 7 V 4.12 C 7,1.29 3,1.29 3,4.12 Z"
       class="st6"
       inkscape:connector-curvature="0"
       style="enable-background:new 0 0 64 64;display:inline;fill:#99a8ae"
       transform="translate(0,-0.38351554)" /><path
       id="path849-2-7-9"
       d="m 4,2.27 c 0.57,0.32 1,0.91 1,1.82 l 0.01,57.879999 h 2 V 4.09 C 7.01,2.18 5.19,1.6 4,2.27 Z"
       class="st7"
       inkscape:connector-curvature="0"
       style="enable-background:new 0 0 64 64;display:inline;fill:#6e8189"
       transform="translate(0,-0.38351554)" /><path
       id="path862"
       style="display:inline;fill:#ffd900;fill-opacity:1;stroke-width:0.340009"
       d="m 6.9703311,16.930336 c 0.053188,4.713242 0.010497,9.330605 0.015745,13.995907 4.4347779,-1.669664 6.3879529,-2.597428 10.1313759,-6.011411 -2.909205,-1.68106 -6.592607,-4.714911 -10.1471209,-7.984496 z"
       sodipodi:nodetypes="cccc" /><ellipse
       style="display:inline;fill:#ffd900;fill-opacity:1;stroke:#7a00ab;stroke-width:1.05419;stroke-miterlimit:4;stroke-dasharray:none;stroke-opacity:1"
       id="path864"
       cy="25.103901"
       cx="10.321241"
       rx="2.5229738"
       ry="2.4270949" /></g></g><style
   id="style833"
   type="text/css">
	.st0{fill:#E81C27;}
	.st1{fill:#EA8800;}
	.st2{fill:#FFE12C;}
	.st3{fill:#7AB51D;}
	.st4{fill:#006DAE;}
	.st5{fill:#7D0C7A;}
	.st6{fill:#99A8AE;}
	.st7{fill:#6E8189;}
</style></svg>
